<?xml version="1.0" encoding="utf-8"?>
<!-- Generator: Adobe Illustrator 24.0.2, SVG Export Plug-In . SVG Version: 6.00 Build 0)  -->
<svg version="1.1" xmlns="http://www.w3.org/2000/svg" xmlns:xlink="http://www.w3.org/1999/xlink" x="0px" y="0px"
	 viewBox="0 0 1082.14 1080" style="enable-background:new 0 0 1082.14 1080;" xml:space="preserve">
<style type="text/css">
	.st0{fill:#E9F9FF;stroke:#8BB9D7;stroke-width:15;stroke-linecap:round;stroke-linejoin:round;stroke-miterlimit:10;}
	.st1{fill:none;stroke:#C7E9FA;stroke-width:15;stroke-linecap:round;stroke-linejoin:round;stroke-miterlimit:10;}
	.st2{fill:#BFE6F6;stroke:#BFE6F6;stroke-miterlimit:10;}
	.st3{fill:#BFE6F6;stroke:#8BBAD3;stroke-width:15;stroke-linecap:round;stroke-linejoin:round;stroke-miterlimit:10;}
	.st4{fill:#778FB0;stroke:#536E8F;stroke-width:15;stroke-miterlimit:10;}
	.st5{fill:#7A8FAE;stroke:#536E8F;stroke-width:15;stroke-miterlimit:10;}
	.st6{fill:#778FB0;stroke:#536E8F;stroke-width:10;stroke-miterlimit:10;}
	.st7{fill:#8BB9D7;}
	.st8{fill:#E9F9FF;}
	.st9{fill:none;stroke:#536F8F;stroke-width:15;stroke-linecap:round;stroke-linejoin:round;stroke-miterlimit:10;}
	.st10{fill:#536F8F;}
	.st11{fill:#F3DBDD;}
	.st12{fill:#B6C3D4;stroke:#556C8E;stroke-width:10;stroke-miterlimit:10;}
	.st13{fill:#8896AE;stroke:#556C8E;stroke-width:10;stroke-miterlimit:10;}
	.st14{fill:none;stroke:#FFFFFF;stroke-width:15;stroke-linecap:round;stroke-linejoin:round;stroke-miterlimit:10;}
</style>
<g id="Layer_4">
	<path class="st0" d="M759.53,783.04c0,0,2.81,9.36,4.68,31.83c1.87,22.47-12.17,54.31-58.99,63.67
		c-46.81,9.36-83.33-8.43-87.08-29.96c-3.75-21.53,21.53-59.92,21.53-59.92L759.53,783.04z"/>
	<path class="st0" d="M573.2,783.04c0,0,7.49,43.41-4.68,58.99c-11.88,15.21-64.6,40.26-120.78,23.41
		c-56.18-16.85-28.09-78.65,0-82.39C475.83,779.29,573.2,783.04,573.2,783.04z"/>
</g>
<g id="Layer_5">
	<path class="st0" d="M330.7,687.54c0,0-48.69-4.68-80.52-25.28s-39.32-58.99-39.32-58.99l13.11-44.01c0,0,88.95,35.58,111.42,25.28
		C357.86,574.25,330.7,687.54,330.7,687.54z"/>
	<path class="st0" d="M220.22,514.32c0,0,54.44,25.22,21.53,70.22c-25.62,35.04-62.73,12.17-62.73,12.17s-28.6-11.76-11.24-56.72
		C182.77,501.21,220.22,514.32,220.22,514.32z"/>
</g>
<g id="Layer_2">
	<path class="st0" d="M341,298.04c0,0,109.55-58.05,116.1-60.86c6.55-2.81,40.26-15.92,88.01-11.24
		c47.75,4.68,189.13,14.98,218.16,16.85c29.03,1.87,61.73,1.35,89.88,22.47c33.71,25.28,27.15,81.46,29.03,94.57
		c1.87,13.11-1.95,132.96,0,175.09c2.33,50.13-7.49,128.27-12.17,142.32c-4.68,14.04-35.58,72.09-68.35,93.63
		c-32.77,21.53-81.96,32.77-189.38,32.77s-240.38-20.6-250.68-26.22c-10.3-5.62-62.73-23.41-61.8-97.37
		c0.94-73.97,0.91-161.98-0.01-253.74C298.87,334.55,313.51,318.39,341,298.04z"/>
</g>
<g id="Layer_6">
	<path class="st1" d="M361.6,347.66c0,0,44.94-15.92,79.59-6.55"/>
	<path class="st2" d="M740.15,674.4V438.45c0,0,5.9-21.49-19.8-54.13c-14.89-18.91-102.85-28.26-102.85-28.26
		s-15.92,0.94-14.98-8.43c0.94-9.36,29.96-5.76,41.2-4.75c11.24,1.01,73.97,21.61,123.59-15.85s61.55-46.99,63.42-40.43
		c0,0,12.24,5.91-24.47,32.49c-34.58,25.04-45.14,48.29-48.04,56.02c-2.9,7.73-2.9,11.59-2.9,11.59s12.56-33.56,42.5-43.83
		c29.94-10.27,51.81,13.19,50.63,63.55c-1.27,54.01,2.53,43.88,7.54,87.49c5.56,48.47,1.17,135.23,0,146.83
		c-1.17,11.59-4.83,60.58-11.84,70.77c-32.03,46.53-40.45,52.34-65.33,63.11c-20.72,8.97-31.63,10.76-53.29,14.62
		c-18.69,3.33-31.64,3.89-31.64,3.89l-0.38-21.02C693.5,772.13,747.2,775.66,740.15,674.4z"/>
</g>
<g id="Layer_3">
	<path class="st3" d="M810.32,691.36c0,0,17.79,11.24,39.32,14.04c21.53,2.81,43.07-4.68,53.37-25.28
		c10.3-20.6,0.94-49.62-22.47-65.54c-23.41-15.92-54.31-13.11-54.31-13.11"/>
</g>
<g id="Layer_9">
	<g>
		<path class="st4" d="M576.84,855.59c-6.77,0-13.56-0.82-20.35-2.48c-42.88-10.48-59.32-37.33-65.57-58.01
			c-6.49-21.47-3.29-40.08-2.9-42.14c1.48-7.87,9.06-13.04,16.93-11.57c7.85,1.48,13.02,9.02,11.58,16.86
			c-0.06,0.36-2.38,14.32,2.44,29.37c6.09,19.04,21.04,31.59,44.41,37.31c57.97,14.17,100.83-69.49,101.26-70.34
			c3.6-7.15,12.31-10.04,19.46-6.45c7.15,3.59,10.05,12.28,6.47,19.44c-0.53,1.05-13.11,25.98-35.02,48.92
			C630.89,842.33,604.02,855.59,576.84,855.59z"/>
	</g>
	<g>
		<path class="st5" d="M534.14,746.46c-51,0-104.6-14.64-131.96-26.61c-11.41-4.99-41.19-18.94-71.15-40.59
			c-29.98-21.66-50.45-43.97-60.86-66.32c-21.12-45.37-13.81-86.71,21.14-119.55c5.84-5.48,13.16-10.57,13.16-2.56
			c0,12.69,5.2,33.74-0.88,42.2c-14.86,20.68-22.9,33.79-7.13,67.67c19.03,40.88,82.71,77.43,117.34,92.58
			c26.66,11.66,75.78,24.18,120.36,24.18c12.63,0,24.88-1,36.17-3.31c52.35-10.72,72.7-16.54,108.86-31.15
			c31.03-12.55,77.93-31.5,106.9-69.39c22.5-29.43,33.1-54.66,30.65-72.97c-0.86-6.45-10.36-12.03-14.82-13.72l5.04-13.6l4.95-13.63
			c3.08,1.12,30.17,11.66,33.58,37.1c3.54,26.48-8.69,58.25-36.36,94.43c-33.79,44.19-85.11,64.93-119.07,78.66
			c-37.71,15.25-60.07,21.66-113.91,32.68C562.78,745.29,548.56,746.46,534.14,746.46z"/>
	</g>
	<path class="st6" d="M812.34,516.66c-5.13,11.58-11.21,21.11-20.21,17.13c-8.99-3.98-11.12-17.81-5.99-29.39
		c5.13-11.58,15.58-16.53,24.57-12.54S817.48,505.08,812.34,516.66z"/>
</g>
<g id="Layer_10">
	<path class="st7" d="M292.8,478.71c0,0,1.43,62.53,3.1,88.19l12.08,5.04c0,0,0.85-95.32-0.39-105.66
		C306.36,455.95,292.8,478.71,292.8,478.71z"/>
	<path class="st8" d="M307.4,433.18c0,0,1.36,162.94,0.69,166.61c-0.68,3.67,24.04-76.5,24.04-76.5L307.4,433.18z"/>
</g>
<g id="Layer_7">
</g>
<g id="Layer_8">
	<path class="st9" d="M590.56,523.68c0,0,11.23-7.25,22.31-6.48c13.41,0.94,20.15,11.51,21.59,16.55"/>
	<path class="st10" d="M455.62,508.88c0,17.18-12.5,31.12-27.92,31.12c-15.42,0-25.45-13.93-25.45-31.12
		c0-17.18,10.03-31.11,25.45-31.11C443.12,477.77,455.62,491.7,455.62,508.88z"/>
	<path class="st9" d="M491.55,540c0,0-1.92,19.22,20.25,25.12c25.64,6.83,33.19-17.44,33.19-17.44"/>
	<path class="st11" d="M416.16,569.72c0,16.41-14.99,27.26-33.47,27.26s-33.47-10.84-33.47-27.26c0-16.41,14.99-26.9,33.47-26.9
		S416.16,553.31,416.16,569.72z"/>
	<path class="st11" d="M691.83,586.28c0,18.45-15.74,29.36-35.16,29.36c-19.42,0-35.16-10.91-35.16-29.36
		c0-18.45,15.74-30.3,35.16-30.3C676.08,555.97,691.83,567.82,691.83,586.28z"/>
</g>
<g id="Layer_11">
	<circle class="st12" cx="667.89" cy="786.23" r="46.3"/>
	<circle class="st13" cx="667.89" cy="786.23" r="19.22"/>
</g>
<g id="Layer_12">
	<path class="st14" d="M352.34,401.59c0,0,9.73-16.86,14.91-19.45"/>
	<path class="st14" d="M433.4,292c0,0,34.37-35.02,83-30.48"/>
	<line class="st14" x1="629.89" y1="267.36" x2="641.56" y2="267.36"/>
</g>
</svg>
