<?xml version="1.0" encoding="utf-8"?>
<!-- Generator: Adobe Illustrator 24.0.2, SVG Export Plug-In . SVG Version: 6.00 Build 0)  -->
<svg version="1.1" id="Layer_1" xmlns="http://www.w3.org/2000/svg" xmlns:xlink="http://www.w3.org/1999/xlink" x="0px" y="0px"
	 viewBox="0 0 700 94" style="enable-background:new 0 0 700 94;" xml:space="preserve">
<style type="text/css">
	.st0{fill:#43BBEE;stroke:#405792;stroke-miterlimit:10;}
	.st1{fill:#FFFFFF;}
	.st2{fill:none;stroke:#FFFFFF;stroke-width:4;stroke-linecap:round;stroke-miterlimit:10;}
</style>
<g>
	<path class="st0" d="M7,39.02c0-9.47,0.33-19.54,0.98-30.2h26.99c0.65,10.66,0.98,20.73,0.98,30.2c0,15.55-0.86,30.89-2.59,46.02
		H9.59C7.86,69.91,7,54.57,7,39.02z"/>
</g>
<g>
	<path class="st0" d="M62.27,81.96c-6.4-3.25-11.35-7.86-14.83-13.85c-3.49-5.99-5.23-12.97-5.23-20.96
		c0-7.86,1.64-14.75,4.91-20.64c3.28-5.9,8.06-10.54,14.34-13.94c6.28-3.4,13.9-5.24,22.83-5.54c4.23-0.12,8.55,0.18,12.96,0.89
		c4.41,0.72,8.22,1.76,11.44,3.13l-3.13,23.5c-5.18-1.85-10.61-2.77-16.26-2.77c-3.87,0-7.15,0.51-9.83,1.52
		c-5.12,2.03-7.69,6.46-7.69,13.32c0,3.4,0.68,6.36,2.05,8.89c1.37,2.53,3.51,4.28,6.43,5.23c2.38,0.77,5.18,1.16,8.4,1.16
		c3.1,0,6.31-0.37,9.65-1.12c3.34-0.74,6.49-1.74,9.47-2.99l4.11,23.5c-3.46,1.73-7.57,3.08-12.33,4.07
		c-4.77,0.98-9.77,1.47-15.01,1.47C76.1,86.83,68.67,85.2,62.27,81.96z"/>
</g>
<g>
	<path class="st0" d="M135.1,82c-6.4-3.22-11.35-7.81-14.83-13.76c-3.49-5.96-5.23-12.93-5.23-20.91c0-7.8,1.67-14.68,5-20.64
		c3.34-5.96,8.19-10.65,14.57-14.07c6.37-3.42,14-5.29,22.88-5.59c4.23-0.12,8.49,0.16,12.78,0.85c4.29,0.69,8.04,1.68,11.26,2.99
		l-3.13,22.16c-5.48-1.67-11.02-2.5-16.62-2.5c-4.83,0-8.58,0.66-11.26,1.97c-2.5,1.19-4.59,2.95-6.26,5.27
		c5.18-0.24,11.02-0.36,17.52-0.36c5.96,0,11.29,0.12,16,0.36l0.18,17.43c-8.94,0.42-16.71,0.63-23.32,0.63
		c-2.32,0-5.87-0.06-10.63-0.18c1.73,2.74,4.17,4.65,7.33,5.72c2.86,0.95,6.31,1.43,10.37,1.43c3.16,0,6.39-0.28,9.7-0.85
		c3.31-0.57,6.39-1.38,9.25-2.46l4.11,22.16c-3.69,1.61-7.92,2.87-12.69,3.8c-4.77,0.92-9.65,1.39-14.66,1.39
		C148.93,86.83,141.5,85.22,135.1,82z"/>
</g>
<g>
	<path class="st0" d="M243.63,85.49c-10.66,0-18.68-0.15-24.04-0.45c-2.09-15.49-3.13-30.95-3.13-46.38
		c0-9.65,0.36-19.57,1.07-29.76c7.98-0.42,16.56-0.63,25.74-0.63h3.75c8.99,0,16.7,1.59,23.1,4.78c6.4,3.19,11.27,7.72,14.61,13.58
		c3.34,5.87,5,12.73,5,20.6c0,7.98-1.79,14.85-5.36,20.6c-3.57,5.75-8.64,10.13-15.19,13.14c-6.55,3.01-14.24,4.51-23.06,4.51
		H243.63z M242.91,44.11c0,5.6,0.21,11.65,0.63,18.14c4.47,0.18,8.43-0.51,11.89-2.06c2.26-1.01,4.01-2.74,5.23-5.18
		c1.22-2.44,1.83-5.12,1.83-8.04c0-2.74-0.58-5.32-1.74-7.73c-1.16-2.41-2.81-4.21-4.96-5.41c-2.5-1.37-5.75-2.05-9.74-2.05
		c-1.25,0-2.18,0.03-2.77,0.09C243.03,36.99,242.91,41.07,242.91,44.11z"/>
</g>
<g>
	<path class="st0" d="M314.09,81.87c-6.4-3.31-11.32-7.97-14.75-13.99c-3.43-6.02-5.14-13.02-5.14-21c0-7.98,1.71-14.97,5.14-20.96
		c3.43-5.99,8.33-10.63,14.7-13.94c6.37-3.31,13.91-4.96,22.61-4.96c8.64,0,16.16,1.65,22.56,4.96c6.4,3.31,11.32,7.97,14.75,13.99
		c3.42,6.02,5.14,12.99,5.14,20.91c0,7.92-1.71,14.89-5.14,20.91c-3.43,6.02-8.34,10.69-14.75,14.03c-6.4,3.34-13.93,5-22.56,5
		C328.01,86.83,320.49,85.18,314.09,81.87z M346.26,58.54c2.35-2.65,3.53-6.54,3.53-11.66c0-5.06-1.18-8.92-3.53-11.57
		c-2.35-2.65-5.56-3.98-9.61-3.98c-4.05,0-7.25,1.33-9.61,3.98c-2.35,2.65-3.53,6.51-3.53,11.57c0,5.12,1.18,9.01,3.53,11.66
		c2.35,2.65,5.55,3.98,9.61,3.98C340.7,62.52,343.91,61.2,346.26,58.54z"/>
</g>
<g>
	<path class="st0" d="M403.63,81.96c-6.41-3.25-11.35-7.86-14.83-13.85s-5.23-12.97-5.23-20.96c0-7.86,1.64-14.75,4.91-20.64
		c3.28-5.9,8.06-10.54,14.34-13.94c6.28-3.4,13.9-5.24,22.83-5.54c4.23-0.12,8.55,0.18,12.96,0.89c4.41,0.72,8.22,1.76,11.44,3.13
		l-3.13,23.5c-5.18-1.85-10.61-2.77-16.26-2.77c-3.87,0-7.15,0.51-9.83,1.52c-5.12,2.03-7.69,6.46-7.69,13.32
		c0,3.4,0.68,6.36,2.06,8.89c1.37,2.53,3.51,4.28,6.43,5.23c2.38,0.77,5.18,1.16,8.4,1.16c3.1,0,6.31-0.37,9.65-1.12
		c3.34-0.74,6.49-1.74,9.47-2.99l4.11,23.5c-3.46,1.73-7.57,3.08-12.33,4.07c-4.77,0.98-9.77,1.47-15.01,1.47
		C417.47,86.83,410.03,85.2,403.63,81.96z"/>
</g>
<g>
	<path class="st0" d="M477.31,42.24v-7.95c-8.64,0-15.82,0.18-21.54,0.54l-0.27-26.27c7.56-0.66,18.29-0.98,32.17-0.98
		c15.91,0,29.01,0.42,39.32,1.25l-0.27,26.27c-4.11-0.24-11.29-0.48-21.54-0.71v7.95c0,15.85-0.51,30.09-1.52,42.72h-24.84
		C477.82,72.41,477.31,58.14,477.31,42.24z"/>
</g>
<g>
	<path class="st0" d="M550.45,81.87c-6.41-3.31-11.32-7.97-14.75-13.99c-3.43-6.02-5.14-13.02-5.14-21c0-7.98,1.71-14.97,5.14-20.96
		c3.43-5.99,8.33-10.63,14.7-13.94c6.37-3.31,13.91-4.96,22.61-4.96c8.64,0,16.16,1.65,22.56,4.96s11.32,7.97,14.75,13.99
		c3.42,6.02,5.14,12.99,5.14,20.91c0,7.92-1.71,14.89-5.14,20.91c-3.43,6.02-8.34,10.69-14.75,14.03c-6.4,3.34-13.93,5-22.56,5
		C564.38,86.83,556.86,85.18,550.45,81.87z M582.62,58.54c2.35-2.65,3.53-6.54,3.53-11.66c0-5.06-1.18-8.92-3.53-11.57
		c-2.35-2.65-5.56-3.98-9.61-3.98c-4.05,0-7.25,1.33-9.61,3.98c-2.35,2.65-3.53,6.51-3.53,11.57c0,5.12,1.17,9.01,3.53,11.66
		c2.35,2.65,5.55,3.98,9.61,3.98C577.07,62.52,580.27,61.2,582.62,58.54z"/>
</g>
<g>
	<path class="st0" d="M649.33,64.49v3.31c0,6.31-0.21,12.06-0.62,17.25h-23.86c-2.09-15.67-3.13-31.16-3.13-46.47
		c0-9.65,0.36-19.57,1.07-29.76c8.16-0.42,16.8-0.63,25.92-0.63h6.61c13.11,0.36,22.85,2.94,29.22,7.73
		c6.37,4.8,9.56,11.87,9.56,21.22c0,9.24-3.61,16.23-10.81,21c3.57,0.54,6.42,2.05,8.53,4.56c2.11,2.5,3.17,5.66,3.17,9.47
		c0,3.99-1.16,8.28-3.49,12.87h-24.4c0.18-2.2,0.27-4.23,0.27-6.08c0-5.12-0.79-8.77-2.37-10.95c-1.58-2.17-3.98-3.29-7.19-3.35
		h-1.25h-0.18h-1.34L649.33,64.49z M656.04,42.86c7.03-0.12,10.54-2.15,10.54-6.08c0-2.02-0.91-3.47-2.73-4.33
		c-1.82-0.86-4.33-1.32-7.55-1.38c-2.56,0-5.09,0.09-7.6,0.27v0.71c-0.24,3.34-0.36,6.88-0.36,10.63
		C650.08,42.8,652.64,42.86,656.04,42.86z"/>
</g>
<g>
	<g>
		<path class="st1" d="M55.99,28.32c-0.75,0-1.5-0.3-2.04-0.86c-0.79-0.82-1.02-2.04-0.57-3.09c0.56-1.33,10.14-13.07,26.73-13.07
			c1.57,0,2.84,1.27,2.84,2.84s-1.27,2.84-2.84,2.84c-13.37,0-20.91,8.98-21.66,9.94c-0.31,0.54-0.8,0.98-1.43,1.22
			C56.69,28.25,56.34,28.32,55.99,28.32z"/>
	</g>
</g>
<g>
	<g>
		<path class="st1" d="M131.17,28.32c-0.75,0-1.5-0.3-2.04-0.86c-0.79-0.82-1.02-2.04-0.57-3.09c0.56-1.33,10.14-13.07,26.73-13.07
			c1.57,0,2.84,1.27,2.84,2.84s-1.27,2.84-2.84,2.84c-13.37,0-20.91,8.98-21.66,9.94c-0.31,0.54-0.8,0.98-1.43,1.22
			C131.87,28.25,131.52,28.32,131.17,28.32z"/>
	</g>
</g>
<g>
	<g>
		<path class="st1" d="M308.48,28.32c-0.75,0-1.5-0.3-2.04-0.86c-0.79-0.82-1.02-2.04-0.57-3.09c0.56-1.33,10.14-13.07,26.73-13.07
			c1.57,0,2.84,1.27,2.84,2.84s-1.27,2.84-2.84,2.84c-13.37,0-20.91,8.98-21.66,9.94c-0.31,0.54-0.8,0.98-1.43,1.22
			C309.18,28.25,308.83,28.32,308.48,28.32z"/>
	</g>
</g>
<g>
	<g>
		<path class="st1" d="M397.85,28.32c-0.75,0-1.49-0.3-2.04-0.86c-0.79-0.82-1.02-2.04-0.58-3.09c0.56-1.33,10.14-13.07,26.73-13.07
			c1.57,0,2.84,1.27,2.84,2.84s-1.27,2.84-2.84,2.84c-13.36,0-20.91,8.99-21.66,9.94c-0.31,0.54-0.8,0.98-1.42,1.22
			C398.54,28.25,398.19,28.32,397.85,28.32z"/>
	</g>
</g>
<g>
	<g>
		<path class="st1" d="M543.95,28.32c-0.75,0-1.49-0.3-2.04-0.86c-0.79-0.82-1.02-2.04-0.58-3.09c0.56-1.33,10.14-13.07,26.73-13.07
			c1.57,0,2.84,1.27,2.84,2.84s-1.27,2.84-2.84,2.84c-13.36,0-20.91,8.99-21.66,9.94c-0.31,0.54-0.8,0.98-1.42,1.22
			C544.64,28.25,544.3,28.32,543.95,28.32z"/>
	</g>
</g>
<g>
	<g>
		<path class="st2" d="M223.37,32.57"/>
	</g>
</g>
<g>
	<g>
		<path class="st2" d="M223.37,14.13"/>
	</g>
</g>
<g>
	<g>
		<path class="st1" d="M223.37,31.15c-1.57,0-2.84-1.27-2.84-2.84V13.8l2.04-0.6c0.42-0.12,10.35-3,21.06-1.46
			c1.55,0.22,2.63,1.66,2.41,3.21s-1.67,2.63-3.21,2.41c-6.79-0.97-13.4,0.1-16.62,0.8v10.16
			C226.21,29.88,224.94,31.15,223.37,31.15z"/>
	</g>
</g>
<g>
	<g>
		<path class="st1" d="M13.44,29.73c-1.21,0-2.33-0.78-2.71-1.99c-1.59-5.1-0.23-12-0.07-12.77c0.32-1.53,1.81-2.51,3.35-2.2
			c1.53,0.32,2.52,1.82,2.2,3.35c-0.35,1.7-1.05,6.8-0.07,9.93c0.47,1.5-0.37,3.09-1.86,3.55C14,29.69,13.72,29.73,13.44,29.73z"/>
	</g>
</g>
<g>
	<g>
		<path class="st1" d="M461.68,25.48c-1.57,0-2.84-1.27-2.84-2.84c0-5.9,5.58-12.77,12.77-12.77c1.57,0,2.84,1.27,2.84,2.84
			s-1.27,2.84-2.84,2.84c-4.05,0-7.09,4.3-7.09,7.09C464.51,24.21,463.24,25.48,461.68,25.48z"/>
	</g>
</g>
<g>
	<g>
		<path class="st1" d="M629.06,31.15c-1.57,0-2.84-1.27-2.84-2.84V13.8l2.03-0.6c0.42-0.12,10.35-2.99,21.06-1.46
			c1.55,0.22,2.63,1.66,2.41,3.21c-0.22,1.55-1.66,2.63-3.21,2.41c-6.78-0.97-13.4,0.1-16.62,0.8v10.16
			C631.89,29.88,630.62,31.15,629.06,31.15z"/>
	</g>
</g>
</svg>
