<?xml version="1.0" encoding="utf-8"?>
<!-- Generator: Adobe Illustrator 24.0.2, SVG Export Plug-In . SVG Version: 6.00 Build 0)  -->
<svg version="1.1" id="Layer_1" xmlns="http://www.w3.org/2000/svg" xmlns:xlink="http://www.w3.org/1999/xlink" x="0px" y="0px"
	 viewBox="0 0 600 230" style="enable-background:new 0 0 600 230;" xml:space="preserve">
<style type="text/css">
	.st0{fill:#43BBEE;stroke:#405792;stroke-miterlimit:10;}
	.st1{fill:#FFFFFF;}
	.st2{fill:none;stroke:#405792;stroke-linecap:round;stroke-miterlimit:10;}
	.st3{fill:#E9F9FF;stroke:#8BB9D7;stroke-width:5;stroke-linecap:round;stroke-linejoin:round;stroke-miterlimit:10;}
	.st4{fill:none;stroke:#C7E9FA;stroke-width:5;stroke-linecap:round;stroke-linejoin:round;stroke-miterlimit:10;}
	.st5{fill:#BFE6F6;stroke:#BFE6F6;stroke-width:5;stroke-miterlimit:10;}
	.st6{fill:#BFE6F6;stroke:#8BBAD3;stroke-width:5;stroke-linecap:round;stroke-linejoin:round;stroke-miterlimit:10;}
	.st7{fill:#778FB0;stroke:#536E8F;stroke-width:5;stroke-miterlimit:10;}
	.st8{fill:#7A8FAE;stroke:#536E8F;stroke-width:5;stroke-miterlimit:10;}
	.st9{fill:#8BB9D7;}
	.st10{fill:#E9F9FF;}
	.st11{fill:none;stroke:#536F8F;stroke-width:5;stroke-linecap:round;stroke-linejoin:round;stroke-miterlimit:10;}
	.st12{fill:#536F8F;}
	.st13{fill:#F3DBDD;}
	.st14{fill:#B6C3D4;stroke:#556C8E;stroke-width:5;stroke-miterlimit:10;}
	.st15{fill:#8896AE;stroke:#556C8E;stroke-width:5;stroke-miterlimit:10;}
	.st16{fill:none;stroke:#FFFFFF;stroke-width:5;stroke-linecap:round;stroke-linejoin:round;stroke-miterlimit:10;}
</style>
<path class="st0" d="M253.85,111.01c0-6.68,0.23-13.78,0.69-21.29h19.03c0.46,7.52,0.69,14.62,0.69,21.29
	c0,10.96-0.61,21.78-1.83,32.44h-16.76C254.46,132.78,253.85,121.97,253.85,111.01z"/>
<path class="st0" d="M292.81,141.28c-4.52-2.29-8-5.54-10.46-9.77c-2.46-4.22-3.69-9.15-3.69-14.77c0-5.54,1.15-10.4,3.46-14.55
	c2.31-4.16,5.68-7.43,10.11-9.83c4.43-2.39,9.8-3.7,16.1-3.91c2.98-0.08,6.03,0.13,9.13,0.63c3.11,0.5,5.8,1.24,8.06,2.21
	l-2.2,16.57c-3.65-1.3-7.48-1.95-11.47-1.95c-2.73,0-5.04,0.36-6.93,1.07c-3.61,1.43-5.42,4.56-5.42,9.39
	c0,2.39,0.48,4.48,1.45,6.27c0.97,1.79,2.48,3.01,4.54,3.69c1.68,0.55,3.65,0.82,5.92,0.82c2.18,0,4.45-0.26,6.8-0.79
	c2.35-0.52,4.58-1.23,6.68-2.11l2.9,16.57c-2.44,1.22-5.33,2.17-8.69,2.87c-3.36,0.69-6.89,1.04-10.58,1.04
	C302.57,144.71,297.33,143.57,292.81,141.28z"/>
<path class="st0" d="M344.16,141.31c-4.52-2.27-8-5.5-10.46-9.7c-2.46-4.2-3.69-9.11-3.69-14.74c0-5.5,1.18-10.35,3.53-14.55
	c2.35-4.2,5.77-7.51,10.27-9.92c4.49-2.41,9.87-3.73,16.13-3.94c2.98-0.08,5.98,0.12,9.01,0.6c3.02,0.48,5.67,1.19,7.94,2.11
	l-2.2,15.62c-3.86-1.18-7.77-1.76-11.72-1.76c-3.4,0-6.05,0.46-7.94,1.39c-1.76,0.84-3.23,2.08-4.41,3.72
	c3.65-0.17,7.77-0.25,12.35-0.25c4.2,0,7.96,0.08,11.28,0.25l0.13,12.29c-6.3,0.29-11.78,0.44-16.44,0.44
	c-1.64,0-4.14-0.04-7.5-0.13c1.22,1.93,2.94,3.28,5.17,4.03c2.02,0.67,4.45,1.01,7.31,1.01c2.23,0,4.5-0.2,6.84-0.6
	c2.33-0.4,4.5-0.98,6.52-1.73l2.9,15.62c-2.6,1.13-5.59,2.03-8.95,2.68c-3.36,0.65-6.8,0.98-10.33,0.98
	C353.91,144.71,348.67,143.58,344.16,141.31z"/>
<path class="st0" d="M272.67,207.77c-7.52,0-13.17-0.1-16.95-0.31c-1.47-10.92-2.21-21.82-2.21-32.7c0-6.8,0.25-13.8,0.76-20.98
	c5.63-0.29,11.68-0.44,18.14-0.44h2.65c6.34,0,11.77,1.12,16.29,3.37c4.51,2.25,7.95,5.44,10.3,9.58c2.35,4.14,3.53,8.98,3.53,14.52
	c0,5.63-1.26,10.47-3.78,14.52s-6.09,7.14-10.71,9.26c-4.62,2.12-10.04,3.18-16.25,3.18H272.67z M272.16,178.6
	c0,3.95,0.15,8.21,0.44,12.79c3.15,0.13,5.94-0.36,8.38-1.45c1.6-0.71,2.82-1.93,3.69-3.65c0.86-1.72,1.29-3.61,1.29-5.67
	c0-1.93-0.41-3.75-1.23-5.45c-0.82-1.7-1.98-2.97-3.5-3.81c-1.76-0.97-4.05-1.45-6.87-1.45c-0.88,0-1.53,0.02-1.95,0.06
	C272.25,173.58,272.16,176.46,272.16,178.6z"/>
<path class="st0" d="M322.34,205.22c-4.52-2.33-7.98-5.62-10.4-9.86c-2.42-4.24-3.62-9.18-3.62-14.81c0-5.63,1.21-10.55,3.62-14.77
	c2.42-4.22,5.87-7.5,10.36-9.83c4.49-2.33,9.81-3.5,15.94-3.5c6.09,0,11.39,1.17,15.91,3.5c4.51,2.33,7.98,5.62,10.4,9.86
	c2.41,4.24,3.62,9.16,3.62,14.74c0,5.59-1.21,10.5-3.62,14.74c-2.42,4.24-5.88,7.54-10.4,9.89c-4.52,2.35-9.82,3.53-15.91,3.53
	C332.16,208.71,326.86,207.55,322.34,205.22z M345.02,188.77c1.66-1.87,2.49-4.61,2.49-8.22c0-3.57-0.83-6.29-2.49-8.16
	c-1.66-1.87-3.92-2.8-6.77-2.8c-2.86,0-5.11,0.94-6.77,2.8c-1.66,1.87-2.49,4.59-2.49,8.16c0,3.61,0.83,6.35,2.49,8.22
	c1.66,1.87,3.92,2.8,6.77,2.8C341.11,191.58,343.36,190.64,345.02,188.77z"/>
<path class="st0" d="M385.47,205.28c-4.52-2.29-8-5.54-10.46-9.77s-3.69-9.15-3.69-14.77c0-5.54,1.15-10.4,3.46-14.55
	c2.31-4.16,5.68-7.43,10.11-9.83c4.43-2.39,9.8-3.7,16.1-3.91c2.98-0.08,6.03,0.13,9.13,0.63c3.11,0.5,5.8,1.24,8.06,2.21
	l-2.21,16.57c-3.65-1.3-7.48-1.95-11.47-1.95c-2.73,0-5.04,0.36-6.93,1.07c-3.61,1.43-5.42,4.56-5.42,9.39
	c0,2.39,0.48,4.48,1.45,6.27c0.97,1.79,2.48,3.01,4.54,3.69c1.68,0.55,3.65,0.82,5.92,0.82c2.18,0,4.45-0.26,6.8-0.79
	c2.35-0.52,4.58-1.23,6.68-2.11l2.9,16.57c-2.44,1.22-5.33,2.17-8.69,2.87c-3.36,0.69-6.89,1.04-10.58,1.04
	C395.22,208.71,389.98,207.57,385.47,205.28z"/>
<path class="st0" d="M437.41,177.28v-5.61c-6.09,0-11.15,0.13-15.18,0.38l-0.19-18.52c5.33-0.46,12.89-0.69,22.68-0.69
	c11.21,0,20.45,0.29,27.72,0.88l-0.19,18.52c-2.9-0.17-7.96-0.34-15.18-0.5v5.61c0,11.17-0.36,21.21-1.07,30.11h-17.51
	C437.77,198.55,437.41,188.49,437.41,177.28z"/>
<path class="st0" d="M488.98,205.22c-4.52-2.33-7.98-5.62-10.4-9.86c-2.42-4.24-3.62-9.18-3.62-14.81c0-5.63,1.21-10.55,3.62-14.77
	c2.42-4.22,5.87-7.5,10.36-9.83s9.81-3.5,15.94-3.5c6.09,0,11.39,1.17,15.91,3.5s7.98,5.62,10.4,9.86
	c2.41,4.24,3.62,9.16,3.62,14.74c0,5.59-1.21,10.5-3.62,14.74c-2.42,4.24-5.88,7.54-10.4,9.89c-4.51,2.35-9.82,3.53-15.91,3.53
	C498.79,208.71,493.49,207.55,488.98,205.22z M511.66,188.77c1.66-1.87,2.49-4.61,2.49-8.22c0-3.57-0.83-6.29-2.49-8.16
	c-1.66-1.87-3.92-2.8-6.77-2.8c-2.86,0-5.11,0.94-6.77,2.8c-1.66,1.87-2.49,4.59-2.49,8.16c0,3.61,0.83,6.35,2.49,8.22
	c1.66,1.87,3.92,2.8,6.77,2.8C507.74,191.58,510,190.64,511.66,188.77z"/>
<path class="st0" d="M558.69,192.96v2.33c0,4.45-0.15,8.51-0.44,12.16h-16.82c-1.47-11.05-2.21-21.97-2.21-32.76
	c0-6.8,0.25-13.8,0.76-20.98c5.75-0.29,11.84-0.44,18.27-0.44h4.66c9.24,0.25,16.11,2.07,20.6,5.45c4.49,3.38,6.74,8.37,6.74,14.96
	c0,6.51-2.54,11.45-7.62,14.81c2.52,0.38,4.53,1.45,6.02,3.21c1.49,1.76,2.24,3.99,2.24,6.68c0,2.81-0.82,5.84-2.46,9.07h-17.2
	c0.13-1.55,0.19-2.98,0.19-4.28c0-3.61-0.56-6.18-1.67-7.72c-1.11-1.53-2.8-2.32-5.07-2.36h-0.88h-0.13h-0.95L558.69,192.96z
	 M563.41,177.72c4.96-0.08,7.43-1.51,7.43-4.28c0-1.43-0.64-2.45-1.92-3.06c-1.28-0.61-3.05-0.93-5.32-0.98
	c-1.81,0-3.59,0.06-5.35,0.19v0.5c-0.17,2.35-0.25,4.85-0.25,7.5C559.21,177.67,561.02,177.72,563.41,177.72z"/>
<g>
	<path class="st1" d="M288.39,103.46c-0.53,0-1.05-0.21-1.44-0.61c-0.56-0.58-0.72-1.44-0.41-2.18c0.4-0.94,7.15-9.21,18.84-9.21
		c1.1,0,2,0.9,2,2s-0.9,2-2,2c-9.42,0-14.74,6.33-15.27,7c-0.22,0.38-0.57,0.69-1.01,0.86
		C288.88,103.42,288.63,103.46,288.39,103.46z"/>
</g>
<g>
	<path class="st1" d="M341.39,103.46c-0.53,0-1.05-0.21-1.44-0.61c-0.56-0.58-0.72-1.44-0.41-2.18c0.4-0.94,7.15-9.21,18.84-9.21
		c1.1,0,2,0.9,2,2s-0.9,2-2,2c-9.42,0-14.74,6.33-15.27,7c-0.22,0.38-0.57,0.69-1.01,0.86
		C341.88,103.42,341.63,103.46,341.39,103.46z"/>
</g>
<g>
	<path class="st1" d="M318.39,167.46c-0.53,0-1.05-0.21-1.44-0.61c-0.56-0.58-0.72-1.44-0.41-2.18c0.4-0.94,7.15-9.21,18.84-9.21
		c1.1,0,2,0.9,2,2s-0.9,2-2,2c-9.42,0-14.74,6.33-15.27,7c-0.22,0.38-0.57,0.69-1.01,0.86
		C318.88,167.42,318.63,167.46,318.39,167.46z"/>
</g>
<g>
	<path class="st1" d="M381.39,167.46c-0.53,0-1.05-0.21-1.44-0.61c-0.56-0.58-0.72-1.44-0.41-2.18c0.4-0.94,7.15-9.21,18.84-9.21
		c1.1,0,2,0.9,2,2s-0.9,2-2,2c-9.42,0-14.74,6.34-15.27,7c-0.22,0.38-0.56,0.69-1,0.86C381.88,167.42,381.64,167.46,381.39,167.46z"
		/>
</g>
<g>
	<path class="st1" d="M484.39,167.46c-0.53,0-1.05-0.21-1.44-0.61c-0.56-0.58-0.72-1.44-0.41-2.18c0.4-0.94,7.15-9.21,18.84-9.21
		c1.1,0,2,0.9,2,2s-0.9,2-2,2c-9.42,0-14.74,6.34-15.27,7c-0.22,0.38-0.56,0.69-1,0.86C484.88,167.42,484.64,167.46,484.39,167.46z"
		/>
</g>
<g>
	<path class="st2" d="M258.39,170.46"/>
</g>
<g>
	<path class="st2" d="M258.39,157.46"/>
</g>
<g>
	<path class="st1" d="M258.39,169.46c-1.1,0-2-0.9-2-2v-10.23l1.44-0.42c0.29-0.09,7.29-2.11,14.85-1.03
		c1.09,0.16,1.85,1.17,1.7,2.26s-1.17,1.85-2.26,1.7c-4.78-0.68-9.44,0.07-11.72,0.56v7.16
		C260.39,168.57,259.5,169.46,258.39,169.46z"/>
</g>
<g>
	<path class="st1" d="M258.39,104.46c-0.85,0-1.64-0.55-1.91-1.4c-1.12-3.59-0.16-8.46-0.05-9c0.23-1.08,1.28-1.77,2.36-1.55
		c1.08,0.22,1.78,1.28,1.55,2.36c-0.25,1.2-0.74,4.79-0.05,7c0.33,1.05-0.26,2.18-1.31,2.51
		C258.79,104.43,258.59,104.46,258.39,104.46z"/>
</g>
<g>
	<path class="st1" d="M426.39,165.46c-1.1,0-2-0.9-2-2c0-4.16,3.93-9,9-9c1.1,0,2,0.9,2,2s-0.9,2-2,2c-2.85,0-5,3.03-5,5
		C428.39,164.57,427.5,165.46,426.39,165.46z"/>
</g>
<g>
	<path class="st1" d="M544.39,169.46c-1.1,0-2-0.9-2-2v-10.23l1.43-0.42c0.29-0.09,7.29-2.11,14.85-1.03
		c1.09,0.16,1.85,1.17,1.7,2.26c-0.16,1.09-1.17,1.85-2.26,1.7c-4.78-0.69-9.44,0.07-11.72,0.56v7.16
		C546.39,168.57,545.5,169.46,544.39,169.46z"/>
</g>
<g id="Layer_4">
	<path class="st3" d="M196.71,190.29c0,0,0.9,2.98,1.49,10.14c0.6,7.16-3.88,17.31-18.8,20.29c-14.92,2.98-26.55-2.69-27.75-9.55
		c-1.19-6.86,6.86-19.09,6.86-19.09L196.71,190.29z"/>
	<path class="st3" d="M137.34,190.29c0,0,2.39,13.83-1.49,18.8c-3.79,4.85-20.58,12.83-38.49,7.46c-17.9-5.37-8.95-25.06,0-26.25
		C106.31,189.1,137.34,190.29,137.34,190.29z"/>
</g>
<g id="Layer_5">
	<path class="st3" d="M60.07,159.86c0,0-15.51-1.49-25.66-8.06s-12.53-18.8-12.53-18.8l4.18-14.02c0,0,28.34,11.34,35.5,8.06
		C68.72,123.77,60.07,159.86,60.07,159.86z"/>
	<path class="st3" d="M24.86,104.67c0,0,17.35,8.04,6.86,22.37c-8.16,11.17-19.99,3.88-19.99,3.88s-9.11-3.75-3.58-18.07
		C12.93,100.49,24.86,104.67,24.86,104.67z"/>
</g>
<g id="Layer_2_1_">
	<path class="st3" d="M63.35,35.75c0,0,34.91-18.5,36.99-19.39c2.09-0.9,12.83-5.07,28.04-3.58c15.22,1.49,60.26,4.77,69.51,5.37
		c9.25,0.6,19.67,0.43,28.64,7.16c10.74,8.06,8.65,25.96,9.25,30.13c0.6,4.18-0.62,42.37,0,55.79c0.74,15.97-2.39,40.87-3.88,45.35
		c-1.49,4.47-11.34,22.97-21.78,29.83c-10.44,6.86-26.12,10.44-60.34,10.44s-76.59-6.56-79.88-8.35
		c-3.28-1.79-19.99-7.46-19.69-31.03c0.3-23.57,0.29-51.61,0-80.85C49.92,47.39,54.59,42.24,63.35,35.75z"/>
</g>
<g id="Layer_6">
	<path class="st4" d="M69.91,51.56c0,0,14.32-5.07,25.36-2.09"/>
	<path class="st5" d="M190.53,155.68V80.49c0,0,1.88-6.85-6.31-17.25c-4.74-6.03-32.77-9-32.77-9s-5.07,0.3-4.77-2.69
		c0.3-2.98,9.55-1.84,13.13-1.51c3.58,0.32,23.57,6.89,39.38-5.05s19.61-14.97,20.21-12.88c0,0,3.9,1.88-7.8,10.35
		c-11.02,7.98-14.38,15.39-15.31,17.85c-0.92,2.46-0.92,3.69-0.92,3.69s4-10.69,13.54-13.97c9.54-3.27,16.51,4.2,16.13,20.25
		c-0.4,17.21,0.81,13.98,2.4,27.88c1.77,15.44,0.37,43.09,0,46.79c-0.37,3.69-1.54,19.3-3.77,22.55
		c-10.21,14.83-12.89,16.68-20.82,20.11c-6.6,2.86-10.08,3.43-16.98,4.66c-5.96,1.06-10.08,1.24-10.08,1.24l-0.12-6.7
		C175.67,186.82,192.78,187.94,190.53,155.68z"/>
</g>
<g id="Layer_3">
	<path class="st6" d="M212.89,161.08c0,0,5.67,3.58,12.53,4.47c6.86,0.9,13.72-1.49,17.01-8.06c3.28-6.56,0.3-15.81-7.16-20.88
		c-7.46-5.07-17.31-4.18-17.31-4.18"/>
</g>
<g id="Layer_9">
	<g>
		<path class="st7" d="M138.5,213.41c-2.16,0-4.32-0.26-6.48-0.79c-13.66-3.34-18.9-11.89-20.89-18.48
			c-2.07-6.84-1.05-12.77-0.92-13.43c0.47-2.51,2.89-4.16,5.39-3.69c2.5,0.47,4.15,2.87,3.69,5.37c-0.02,0.11-0.76,4.56,0.78,9.36
			c1.94,6.07,6.7,10.07,14.15,11.89c18.47,4.52,32.13-22.14,32.27-22.41c1.15-2.28,3.92-3.2,6.2-2.06c2.28,1.14,3.2,3.91,2.06,6.19
			c-0.17,0.33-4.18,8.28-11.16,15.59C155.72,209.19,147.16,213.41,138.5,213.41z"/>
	</g>
	<g>
		<path class="st8" d="M124.89,178.64c-16.25,0-33.33-4.66-42.05-8.48c-3.64-1.59-13.12-6.04-22.67-12.93
			c-9.55-6.9-16.08-14.01-19.39-21.13c-6.73-14.46-4.4-27.63,6.74-38.09c1.86-1.75,4.19-3.37,4.19-0.82
			c0,4.04,1.66,10.75-0.28,13.45c-4.73,6.59-7.3,10.77-2.27,21.56c6.06,13.03,26.35,24.67,37.39,29.5c8.49,3.72,24.15,7.7,38.35,7.7
			c4.02,0,7.93-0.32,11.53-1.05c16.68-3.42,23.17-5.27,34.69-9.93c9.89-4,24.83-10.04,34.06-22.11c7.17-9.38,10.55-17.42,9.77-23.25
			c-0.27-2.06-3.3-3.83-4.72-4.37l1.61-4.33l1.58-4.34c0.98,0.36,9.61,3.72,10.7,11.82c1.13,8.44-2.77,18.56-11.59,30.09
			c-10.77,14.08-27.12,20.69-37.94,25.06c-12.02,4.86-19.14,6.9-36.3,10.41C134.02,178.27,129.48,178.64,124.89,178.64z"/>
	</g>
	<path class="st7" d="M213.54,105.41c-1.63,3.69-3.57,6.73-6.44,5.46c-2.86-1.27-3.54-5.67-1.91-9.36c1.63-3.69,4.96-5.27,7.83-4
		C215.88,98.78,215.17,101.73,213.54,105.41z"/>
</g>
<g id="Layer_10">
	<path class="st9" d="M47.99,92.34c0,0,0.46,20.43,0.99,28.82l3.85,1.65c0,0,0.27-31.15-0.12-34.53
		C52.31,84.9,47.99,92.34,47.99,92.34z"/>
	<path class="st10" d="M52.64,77.46c0,0,0.43,53.24,0.22,54.44c-0.22,1.2,7.66-25,7.66-25L52.64,77.46z"/>
</g>
<g id="Layer_8">
	<path class="st11" d="M142.87,107.65c0,0,3.58-2.31,7.11-2.06c4.27,0.3,6.42,3.67,6.88,5.27"/>
	<path class="st12" d="M99.87,102.94c0,5.47-3.98,9.92-8.9,9.92c-4.91,0-8.11-4.44-8.11-9.92c0-5.47,3.2-9.91,8.11-9.91
		C95.89,93.02,99.87,97.46,99.87,102.94z"/>
	<path class="st11" d="M111.32,112.85c0,0-0.61,6.12,6.45,8c8.17,2.18,10.58-5.56,10.58-5.56"/>
	<path class="st13" d="M87.3,122.32c0,5.23-4.78,8.69-10.66,8.69s-10.66-3.45-10.66-8.69c0-5.23,4.78-8.57,10.66-8.57
		S87.3,117.09,87.3,122.32z"/>
	<path class="st13" d="M175.14,127.6c0,5.88-5.02,9.36-11.2,9.36c-6.19,0-11.2-3.48-11.2-9.36s5.02-9.65,11.2-9.65
		C170.12,117.94,175.14,121.72,175.14,127.6z"/>
</g>
<g id="Layer_11">
	<circle class="st14" cx="167.51" cy="191.31" r="14.75"/>
	<circle class="st15" cx="167.51" cy="191.31" r="6.12"/>
</g>
<g id="Layer_12">
	<path class="st16" d="M66.96,68.75c0,0,3.1-5.37,4.75-6.2"/>
	<path class="st16" d="M92.79,33.83c0,0,10.95-11.16,26.45-9.71"/>
	<line class="st16" x1="155.4" y1="25.98" x2="159.12" y2="25.98"/>
</g>
</svg>
