<?xml version="1.0" encoding="utf-8"?>
<!-- Generator: Adobe Illustrator 24.0.2, SVG Export Plug-In . SVG Version: 6.00 Build 0)  -->
<svg version="1.1" id="Layer_1" xmlns="http://www.w3.org/2000/svg" xmlns:xlink="http://www.w3.org/1999/xlink" x="0px" y="0px"
	 viewBox="0 0 357 139" style="enable-background:new 0 0 357 139;" xml:space="preserve">
<style type="text/css">
	.st0{fill:#43BBEE;stroke:#405792;stroke-miterlimit:10;}
	.st1{fill:#FFFFFF;}
	.st2{fill:none;stroke:#405792;stroke-linecap:round;stroke-miterlimit:10;}
</style>
<g>
	<path class="st0" d="M8.65,30.43c0-6.68,0.23-13.78,0.69-21.29h19.03c0.46,7.52,0.69,14.62,0.69,21.29
		c0,10.96-0.61,21.78-1.83,32.44H10.48C9.26,52.21,8.65,41.4,8.65,30.43z"/>
	<path class="st0" d="M47.61,60.71c-4.52-2.29-8-5.54-10.46-9.77c-2.46-4.22-3.69-9.15-3.69-14.77c0-5.54,1.15-10.4,3.46-14.55
		c2.31-4.16,5.68-7.43,10.11-9.83c4.43-2.39,9.8-3.7,16.1-3.91c2.98-0.08,6.03,0.13,9.13,0.63c3.11,0.5,5.8,1.24,8.06,2.21
		l-2.2,16.57c-3.65-1.3-7.48-1.95-11.47-1.95c-2.73,0-5.04,0.36-6.93,1.07c-3.61,1.43-5.42,4.56-5.42,9.39
		c0,2.39,0.48,4.48,1.45,6.27c0.97,1.79,2.48,3.01,4.54,3.69c1.68,0.55,3.65,0.82,5.92,0.82c2.18,0,4.45-0.26,6.8-0.79
		c2.35-0.52,4.58-1.23,6.68-2.11l2.9,16.57c-2.44,1.22-5.33,2.17-8.69,2.87c-3.36,0.69-6.89,1.04-10.58,1.04
		C57.37,64.14,52.13,62.99,47.61,60.71z"/>
	<path class="st0" d="M98.96,60.74c-4.52-2.27-8-5.5-10.46-9.7c-2.46-4.2-3.69-9.11-3.69-14.74c0-5.5,1.18-10.35,3.53-14.55
		c2.35-4.2,5.77-7.51,10.27-9.92c4.49-2.41,9.87-3.73,16.13-3.94c2.98-0.08,5.98,0.12,9.01,0.6c3.02,0.48,5.67,1.19,7.94,2.11
		l-2.2,15.62c-3.86-1.18-7.77-1.76-11.72-1.76c-3.4,0-6.05,0.46-7.94,1.39c-1.76,0.84-3.23,2.08-4.41,3.72
		c3.65-0.17,7.77-0.25,12.35-0.25c4.2,0,7.96,0.08,11.28,0.25l0.13,12.29c-6.3,0.29-11.78,0.44-16.44,0.44
		c-1.64,0-4.14-0.04-7.5-0.13c1.22,1.93,2.94,3.28,5.17,4.03c2.02,0.67,4.45,1.01,7.31,1.01c2.23,0,4.5-0.2,6.84-0.6
		c2.33-0.4,4.5-0.98,6.52-1.73l2.9,15.62c-2.6,1.13-5.59,2.03-8.95,2.68c-3.36,0.65-6.8,0.98-10.33,0.98
		C108.71,64.14,103.47,63,98.96,60.74z"/>
	<g>
		<path class="st1" d="M43.19,22.89c-0.53,0-1.05-0.21-1.44-0.61c-0.56-0.58-0.72-1.44-0.41-2.18c0.4-0.94,7.15-9.21,18.84-9.21
			c1.1,0,2,0.9,2,2s-0.9,2-2,2c-9.42,0-14.74,6.33-15.27,7c-0.22,0.38-0.57,0.69-1.01,0.86C43.68,22.84,43.44,22.89,43.19,22.89z"/>
	</g>
	<g>
		<path class="st1" d="M96.19,22.89c-0.53,0-1.05-0.21-1.44-0.61c-0.56-0.58-0.72-1.44-0.41-2.18c0.4-0.94,7.15-9.21,18.84-9.21
			c1.1,0,2,0.9,2,2s-0.9,2-2,2c-9.42,0-14.74,6.33-15.27,7c-0.22,0.38-0.57,0.69-1.01,0.86C96.68,22.84,96.44,22.89,96.19,22.89z"/>
	</g>
	<g>
		<path class="st1" d="M13.19,23.89c-0.85,0-1.64-0.55-1.91-1.4c-1.12-3.59-0.16-8.46-0.05-9c0.23-1.08,1.28-1.77,2.36-1.55
			c1.08,0.22,1.78,1.28,1.55,2.36c-0.25,1.2-0.74,4.79-0.05,7c0.33,1.05-0.26,2.18-1.31,2.51C13.59,23.86,13.39,23.89,13.19,23.89z"
			/>
	</g>
</g>
<g>
	<path class="st0" d="M27.47,127.19c-7.52,0-13.17-0.1-16.95-0.31c-1.47-10.92-2.21-21.82-2.21-32.7c0-6.8,0.25-13.8,0.76-20.98
		c5.63-0.29,11.68-0.44,18.14-0.44h2.65c6.34,0,11.77,1.12,16.29,3.37c4.51,2.25,7.95,5.44,10.3,9.58
		c2.35,4.14,3.53,8.98,3.53,14.52c0,5.63-1.26,10.47-3.78,14.52s-6.09,7.14-10.71,9.26c-4.62,2.12-10.04,3.18-16.25,3.18H27.47z
		 M26.97,98.02c0,3.95,0.15,8.21,0.44,12.79c3.15,0.13,5.94-0.36,8.38-1.45c1.6-0.71,2.82-1.93,3.69-3.65
		c0.86-1.72,1.29-3.61,1.29-5.67c0-1.93-0.41-3.75-1.23-5.45c-0.82-1.7-1.98-2.97-3.5-3.81c-1.76-0.97-4.05-1.45-6.87-1.45
		c-0.88,0-1.53,0.02-1.95,0.06C27.05,93.01,26.97,95.88,26.97,98.02z"/>
	<path class="st0" d="M77.15,124.64c-4.52-2.33-7.98-5.62-10.4-9.86c-2.42-4.24-3.62-9.18-3.62-14.81c0-5.63,1.21-10.55,3.62-14.77
		c2.42-4.22,5.87-7.5,10.36-9.83c4.49-2.33,9.81-3.5,15.94-3.5c6.09,0,11.39,1.17,15.91,3.5c4.51,2.33,7.98,5.62,10.4,9.86
		c2.41,4.24,3.62,9.16,3.62,14.74c0,5.59-1.21,10.5-3.62,14.74c-2.42,4.24-5.88,7.54-10.4,9.89c-4.52,2.35-9.82,3.53-15.91,3.53
		C86.96,128.14,81.66,126.97,77.15,124.64z M99.83,108.2c1.66-1.87,2.49-4.61,2.49-8.22c0-3.57-0.83-6.29-2.49-8.16
		c-1.66-1.87-3.92-2.8-6.77-2.8c-2.86,0-5.11,0.94-6.77,2.8c-1.66,1.87-2.49,4.59-2.49,8.16c0,3.61,0.83,6.35,2.49,8.22
		c1.66,1.87,3.92,2.8,6.77,2.8C95.91,111,98.17,110.07,99.83,108.2z"/>
	<path class="st0" d="M140.27,124.71c-4.52-2.29-8-5.54-10.46-9.77s-3.69-9.15-3.69-14.77c0-5.54,1.15-10.4,3.46-14.55
		c2.31-4.16,5.68-7.43,10.11-9.83c4.43-2.39,9.8-3.7,16.1-3.91c2.98-0.08,6.03,0.13,9.13,0.63c3.11,0.5,5.8,1.24,8.06,2.21
		l-2.21,16.57c-3.65-1.3-7.48-1.95-11.47-1.95c-2.73,0-5.04,0.36-6.93,1.07c-3.61,1.43-5.42,4.56-5.42,9.39
		c0,2.39,0.48,4.48,1.45,6.27c0.97,1.79,2.48,3.01,4.54,3.69c1.68,0.55,3.65,0.82,5.92,0.82c2.18,0,4.45-0.26,6.8-0.79
		c2.35-0.52,4.58-1.23,6.68-2.11l2.9,16.57c-2.44,1.22-5.33,2.17-8.69,2.87c-3.36,0.69-6.89,1.04-10.58,1.04
		C150.03,128.14,144.79,126.99,140.27,124.71z"/>
	<path class="st0" d="M192.21,96.7v-5.61c-6.09,0-11.15,0.13-15.18,0.38l-0.19-18.52c5.33-0.46,12.89-0.69,22.68-0.69
		c11.21,0,20.45,0.29,27.72,0.88l-0.19,18.52c-2.9-0.17-7.96-0.34-15.18-0.5v5.61c0,11.17-0.36,21.21-1.07,30.11h-17.51
		C192.57,117.97,192.21,107.92,192.21,96.7z"/>
	<path class="st0" d="M243.78,124.64c-4.52-2.33-7.98-5.62-10.4-9.86c-2.42-4.24-3.62-9.18-3.62-14.81c0-5.63,1.21-10.55,3.62-14.77
		c2.42-4.22,5.87-7.5,10.36-9.83s9.81-3.5,15.94-3.5c6.09,0,11.39,1.17,15.91,3.5s7.98,5.62,10.4,9.86
		c2.41,4.24,3.62,9.16,3.62,14.74c0,5.59-1.21,10.5-3.62,14.74c-2.42,4.24-5.88,7.54-10.4,9.89c-4.51,2.35-9.82,3.53-15.91,3.53
		C253.6,128.14,248.29,126.97,243.78,124.64z M266.46,108.2c1.66-1.87,2.49-4.61,2.49-8.22c0-3.57-0.83-6.29-2.49-8.16
		c-1.66-1.87-3.92-2.8-6.77-2.8c-2.86,0-5.11,0.94-6.77,2.8c-1.66,1.87-2.49,4.59-2.49,8.16c0,3.61,0.83,6.35,2.49,8.22
		c1.66,1.87,3.92,2.8,6.77,2.8C262.54,111,264.8,110.07,266.46,108.2z"/>
	<path class="st0" d="M313.49,112.39v2.33c0,4.45-0.15,8.51-0.44,12.16h-16.82c-1.47-11.05-2.21-21.97-2.21-32.76
		c0-6.8,0.25-13.8,0.76-20.98c5.75-0.29,11.84-0.44,18.27-0.44h4.66c9.24,0.25,16.11,2.07,20.6,5.45c4.49,3.38,6.74,8.37,6.74,14.96
		c0,6.51-2.54,11.45-7.62,14.81c2.52,0.38,4.53,1.45,6.02,3.21c1.49,1.76,2.24,3.99,2.24,6.68c0,2.81-0.82,5.84-2.46,9.07h-17.2
		c0.13-1.55,0.19-2.98,0.19-4.28c0-3.61-0.56-6.18-1.67-7.72c-1.11-1.53-2.8-2.32-5.07-2.36h-0.88h-0.13h-0.95L313.49,112.39z
		 M318.21,97.14c4.96-0.08,7.43-1.51,7.43-4.28c0-1.43-0.64-2.45-1.92-3.06c-1.28-0.61-3.05-0.93-5.32-0.98
		c-1.81,0-3.59,0.06-5.35,0.19v0.5c-0.17,2.35-0.25,4.85-0.25,7.5C314.01,97.1,315.82,97.14,318.21,97.14z"/>
	<g>
		<path class="st1" d="M73.19,86.89c-0.53,0-1.05-0.21-1.44-0.61c-0.56-0.58-0.72-1.44-0.41-2.18c0.4-0.94,7.15-9.21,18.84-9.21
			c1.1,0,2,0.9,2,2s-0.9,2-2,2c-9.42,0-14.74,6.33-15.27,7c-0.22,0.38-0.57,0.69-1.01,0.86C73.68,86.84,73.44,86.89,73.19,86.89z"/>
	</g>
	<g>
		<path class="st1" d="M136.19,86.89c-0.53,0-1.05-0.21-1.44-0.61c-0.56-0.58-0.72-1.44-0.41-2.18c0.4-0.94,7.15-9.21,18.84-9.21
			c1.1,0,2,0.9,2,2s-0.9,2-2,2c-9.42,0-14.74,6.34-15.27,7c-0.22,0.38-0.56,0.69-1,0.86C136.68,86.84,136.44,86.89,136.19,86.89z"/>
	</g>
	<g>
		<path class="st1" d="M239.19,86.89c-0.53,0-1.05-0.21-1.44-0.61c-0.56-0.58-0.72-1.44-0.41-2.18c0.4-0.94,7.15-9.21,18.84-9.21
			c1.1,0,2,0.9,2,2s-0.9,2-2,2c-9.42,0-14.74,6.34-15.27,7c-0.22,0.38-0.56,0.69-1,0.86C239.68,86.84,239.44,86.89,239.19,86.89z"/>
	</g>
	<g>
		<path class="st2" d="M13.19,89.89"/>
	</g>
	<g>
		<path class="st2" d="M13.19,76.89"/>
	</g>
	<g>
		<path class="st1" d="M13.19,88.89c-1.1,0-2-0.9-2-2V76.66l1.44-0.42c0.29-0.09,7.29-2.11,14.85-1.03c1.09,0.16,1.85,1.17,1.7,2.26
			s-1.17,1.85-2.26,1.7c-4.78-0.68-9.44,0.07-11.72,0.56v7.16C15.19,87.99,14.3,88.89,13.19,88.89z"/>
	</g>
	<g>
		<path class="st1" d="M181.19,84.89c-1.1,0-2-0.9-2-2c0-4.16,3.93-9,9-9c1.1,0,2,0.9,2,2s-0.9,2-2,2c-2.85,0-5,3.03-5,5
			C183.19,83.99,182.3,84.89,181.19,84.89z"/>
	</g>
	<g>
		<path class="st1" d="M299.19,88.89c-1.1,0-2-0.9-2-2V76.66l1.43-0.42c0.29-0.09,7.29-2.11,14.85-1.03
			c1.09,0.16,1.85,1.17,1.7,2.26c-0.16,1.09-1.17,1.85-2.26,1.7c-4.78-0.69-9.44,0.07-11.72,0.56v7.16
			C301.19,87.99,300.3,88.89,299.19,88.89z"/>
	</g>
</g>
</svg>
